<svg id="Capa_1" enable-background="new 0 0 450.438 450.438" height="512" viewBox="0 0 450.438 450.438" width="512" xmlns="http://www.w3.org/2000/svg"><g><path d="m337.719 150.062h-105v105h105zm-15 90h-75v-75h75z"/><path d="m217.719 150.062h-105v105h105zm-15 90h-75v-75h75z"/><path d="m217.719 30h-105v105h105zm-15 90h-75v-75h75z"/><path d="m389.22 278.545c-5.48-5.238-12.659-7.939-20.244-7.591l-1.257.057v-166.344l-6.113-1.15c-26.675-5.02-51.229-19.137-69.138-39.75l-11.324 9.838c11.672 13.435 25.863 24.41 41.575 32.362v14.033h-75v-75h14.29c2.781 5.563 5.955 10.957 9.52 16.162l12.375-8.477c-9.662-14.107-16.118-29.764-19.189-46.536l-1.126-6.149h-180.87v283.912l-3.743.169c-14.724.666-26.257 12.733-26.257 27.472v38.385h7.5c4.481 0 8.227.401 11.5 1.096v99.404h15v-93.154c.865.512 1.731 1.035 2.61 1.568 8.573 5.196 18.291 11.086 36.885 11.086 18.595 0 28.312-5.89 36.887-11.086 7.892-4.783 14.707-8.914 29.111-8.914s21.221 4.131 29.112 8.914c8.574 5.196 18.293 11.086 36.889 11.086s28.313-5.89 36.888-11.086c7.893-4.783 14.709-8.914 29.115-8.914 14.405 0 21.222 4.131 29.113 8.914 2.896 1.755 5.934 3.585 9.39 5.245v46.403h15v-41.583c3.685.644 7.809 1.021 12.5 1.021h7.5v-71.512c0-7.582-3.019-14.642-8.499-19.881zm-6.501 75.963c-9.555-1.176-15.233-4.617-21.615-8.484-8.574-5.196-18.292-11.086-36.888-11.086-18.597 0-28.314 5.89-36.889 11.086-7.893 4.783-14.709 8.914-29.114 8.914s-21.222-4.131-29.114-8.914c-8.573-5.196-18.292-11.086-36.887-11.086s-28.312 5.89-36.887 11.086c-7.892 4.783-14.707 8.914-29.111 8.914-14.403 0-21.218-4.131-29.109-8.914-7.34-4.449-15.518-9.405-29.386-10.74v-23.731c0-6.699 5.242-12.185 11.935-12.487l56.029-2.536-.678-14.984-37.286 1.688v-268.234h153.511c1.176 5.103 2.64 10.105 4.384 15h-22.895v105h105v-22.539c4.903 1.783 9.91 3.29 15 4.497v154.732l-202.839 9.182.678 14.984 219.096-9.917c3.443-.156 6.71 1.069 9.202 3.451 2.491 2.381 3.863 5.59 3.863 9.037z"/><path d="m362.719 425.438h15v25h-15z"/><path d="m317.512 0h15v15h-15z"/><path d="m374.719 45.062h15v15h-15z"/><path d="m262.967 420h-15v-15h15zm-30 0h-15v-15h15zm-30 0h-15v-15h15z"/></g></svg>